<svg version="1.0" xmlns="http://www.w3.org/2000/svg" width="33.333" height="26.667" viewBox="0 0 1280 1188"><path d="M793.9.4c-.2.2-6.5 1.1-13.9 2-39.6 4.8-76.6 18.5-111 41.1-34.4 22.5-66.5 55.8-87.9 90.9-19.3 31.6-263.5 451-270.3 464.2-24.3 47.1-38.6 93.5-42.9 138.8-1.5 15.9-.7 43.5 1.6 56.6 9.3 52.5 38.8 86.9 84.2 98.2 7.3 1.8 11.6 2.2 25.3 2.2 14.4-.1 18-.4 28.5-2.8 15.1-3.5 27.7-8.2 42.8-15.8 49.2-25 99.3-74.9 136.4-135.8 26-42.7 130.1-222.5 132-228 2.6-7.6 3-18.7.9-26.6-3.3-12.6-12.1-23.1-24.5-29.2-7.4-3.7-7.7-3.7-19.5-3.7-11.5 0-12.4.2-18.6 3.1-7.8 3.7-13 7.8-17.5 13.6-1.9 2.4-31.2 52-65.3 110.3-34 58.3-64.4 110-67.4 115-31.4 50.5-74.2 91.4-109.8 104.6-6.8 2.6-10.1 3.2-16.7 3.3-7.7.1-8.3-.1-11.2-2.8-3.7-3.5-6.8-10.6-8.8-20-1.9-9-1.2-37.9 1.2-51 5.8-31.5 19.3-67.9 36.8-99 15.8-28 258.3-442.6 264.2-451.6 3.4-5.2 8.3-12.2 10.9-15.5 6-7.8 22.2-24.2 30.6-31 21.6-17.6 48-30.4 75-36.2 6.6-1.4 12.6-1.8 27-1.7 16.9 0 19.4.3 28.5 2.8 49.8 13.6 82.4 56.9 86.4 114.9 2.3 34.3-4.9 67.6-21.8 100.2-3.8 7.1-59.8 103.7-124.6 214.5S634 766.4 606.2 814c-96 164.4-88.2 151.9-105.7 169.5-26.5 26.5-59 42.8-97.5 49.1-14.4 2.4-38.5 2.1-54.3-.5-15.1-2.6-31.7-7.7-44.2-13.5-10.1-4.8-75.6-42-88-50-38.7-25.2-65.7-66.3-74.1-113.1-2.5-13.9-2.9-35.8-1-49.6 2.7-19 6.8-33 14.5-49.4 2.6-5.5 71.9-125 154.1-265.5 82.1-140.5 159.3-272.7 171.6-293.7 12.5-21.4 23.3-41 24.5-44.5 1.7-5.2 2-8.1 1.7-16.3-.3-8.7-.8-10.9-3.5-16.8-11.1-23.6-38.3-33.2-62.2-22-12.7 6-10.1 2-97.6 151.8-43.9 75.3-120.8 207-170.8 292.5-50.1 85.5-93.8 160.9-97.2 167.5-36.8 71.5-37.6 157.9-2.1 231 12 24.7 24.2 42.9 42.4 63.1 13 14.4 33.6 31.9 50.7 42.9 5.6 3.6 65.5 38.2 81 46.8 30.5 16.8 66.2 28 101.2 31.8 18.5 1.9 54.6.7 72.3-2.5 73.4-13.1 135.4-53 175.7-113.1 6.3-9.4 374-638.3 382.4-654 10.7-20 21.3-48.9 26.3-71.5 5.3-24.1 6.1-32.5 6-62 0-25.2-.3-28.7-2.7-42-6.2-33.8-17.2-62.2-34.3-88.2-31.7-48-82.6-80.4-138.7-88.3-6.2-.8-14-2-17.3-2.5-6-1-24.7-1.4-25.5-.6z"/></svg>